Coordinates
version=1
nRows=9
nColumns=63
inDegrees=yes

Units are S.I. units (second, meters, Newtons, ...)
If the header above contains a line with 'inDegrees', this indicates whether rotational values are in degrees (yes) or radians (no).

endheader
time	pelvis_tilt	pelvis_list	pelvis_rotation	pelvis_tx	pelvis_ty	pelvis_tz	hip_flexion_r	hip_adduction_r	hip_rotation_r	knee_angle_r	knee_angle_r_beta	ankle_angle_r	subtalar_angle_r	mtp_angle_r	hip_flexion_l	hip_adduction_l	hip_rotation_l	knee_angle_l	knee_angle_l_beta	ankle_angle_l	subtalar_angle_l	mtp_angle_l	L5_S1_Flex_Ext	L5_S1_Lat_Bending	L5_S1_axial_rotation	L4_L5_Flex_Ext	L4_L5_Lat_Bending	L4_L5_axial_rotation	L3_L4_Flex_Ext	L3_L4_Lat_Bending	L3_L4_axial_rotation	L2_L3_Flex_Ext	L2_L3_Lat_Bending	L2_L3_axial_rotation	L1_L2_Flex_Ext	L1_L2_Lat_Bending	L1_L2_axial_rotation	L1_T12_Flex_Ext	L1_T12_Lat_Bending	L1_T12_axial_rotation	Abs_r3	Abs_r2	Abs_r1	Abs_t1	Abs_t2	neck_flexion	neck_bending	neck_rotation	arm_flex_r	arm_add_r	arm_rot_r	elbow_flex_r	pro_sup_r	wrist_flex_r	wrist_dev_r	arm_flex_l	arm_add_l	arm_rot_l	elbow_flex_l	pro_sup_l	wrist_flex_l	wrist_dev_l
      1.53333333	      4.65652395	     -2.16594013	     89.12097245	      0.24956465	      1.01768905	      0.31861877	      1.51990966	      0.85688558	    -15.89978426	     15.94998120	      0.27837969	     30.94555075	     18.78370803	      0.00000000	     -4.67469420	     -2.66192443	     10.46137147	      1.23017984	      0.02147069	     21.22299543	    -17.07126128	      0.00000000	     -0.01763886	      0.50654000	      1.35083983	     -0.03275713	      0.67369821	      1.43526731	     -0.02897888	      1.23160137	      1.43526731	     -0.02015945	      1.23160137	      1.18198485	     -0.01637944	      1.03293638	      1.09755736	     -0.01007884	      0.78463047	      1.01312987	     -0.12599261	      5.73008184	      7.51296586	      0.00000000	      0.00000000	     23.21197795	     -8.40446983	     -1.79975822	      5.72525168	    -18.34508936	     40.83703035	     33.05090156	     70.63774289	     -5.38995077	     -7.12005048	     12.36245428	    -12.44514244	     68.22417767	     34.17971428	     87.59180777	      0.46019821	     -2.70395325
      1.55000000	      4.53841372	     -2.26429294	     89.02024837	      0.25011875	      1.01673899	      0.31760668	      1.60687687	      0.74165628	    -15.67000884	     15.98527323	      0.27899565	     31.28641838	     18.80960782	      0.00000000	     -4.58092225	     -2.54251297	     10.31944274	      1.24266241	      0.02168855	     21.68679052	    -16.89702745	      0.00000000	     -0.02583751	      0.50597386	      1.29029281	     -0.04798284	      0.67294523	      1.37093611	     -0.04244844	      1.23022483	      1.37093611	     -0.02952969	      1.23022483	      1.12900621	     -0.02399271	      1.03178189	      1.04836291	     -0.01476355	      0.78375350	      0.96771961	     -0.18455474	      5.72367746	      7.17622153	      0.00000000	      0.00000000	     23.82464042	     -8.66904876	     -1.56682129	      5.29356944	    -18.88634681	     41.30849819	     30.87565215	     71.04856827	     -6.18170425	     -6.04424528	     12.53393093	    -12.70464868	     72.31968611	     30.45784034	     87.22579068	     -3.08685481	     -3.05310852
      1.56666667	      4.32873954	     -2.29269123	     88.91306023	      0.25138281	      1.01543024	      0.31676210	      1.62475430	      0.60395740	    -15.23968826	     15.98814961	      0.27904585	     31.83469869	     18.77141095	      0.00000000	     -4.56046054	     -2.38827067	     10.42688514	      1.26513002	      0.02208068	     22.16568803	    -16.91261637	      0.00000000	     -0.04341843	      0.47025534	      1.22913307	     -0.08063236	      0.62543960	      1.30595388	     -0.07133213	      1.14337883	      1.30595388	     -0.04962292	      1.14337883	      1.07549143	     -0.04031835	      0.95894469	      0.99867062	     -0.02480929	      0.72842552	      0.92184980	     -0.31013348	      5.31962246	      6.83606937	      0.00000000	      0.00000000	     24.46757939	     -8.50134910	     -1.96265468	      4.59382172	    -18.92135167	     41.20412144	     28.71679694	     70.69417113	     -6.39595321	     -5.15544022	     11.67341739	    -13.06705197	     72.12214722	     27.26520816	     86.47689741	     -4.07754096	     -2.47999789
      1.58333333	      4.05627308	     -2.24187903	     88.80190514	      0.25262962	      1.01387083	      0.31610893	      1.62204852	      0.38169134	    -14.83739726	     16.10962110	      0.28116593	     32.57150101	     18.76494541	      0.00000000	     -4.57021543	     -2.14946049	     10.16008879	      1.42994402	      0.02495723	     22.85581653	    -16.63310641	      0.00000000	     -0.06007344	      0.41699376	      1.14979352	     -0.11156239	      0.55460170	      1.22165561	     -0.09869466	      1.01387862	      1.22165561	     -0.06865794	      1.01387862	      1.00606933	     -0.05578420	      0.85033367	      0.93420723	     -0.03432597	      0.64592333	      0.86234514	     -0.42909860	      4.71711679	      6.39480662	      0.00000000	      0.00000000	     24.84248374	     -8.02944404	     -2.88684230	      4.57192710	    -19.08930707	     45.00040405	     26.12447770	     65.06199434	     -5.72230136	     -4.65200544	     11.05720024	    -13.48903332	     75.79967309	     23.77128672	     79.51391595	     -7.22081878	     -5.08005152
      1.60000000	      3.81838919	     -2.14879750	     88.80822161	      0.25367634	      1.01222065	      0.31601664	      1.64762816	      0.17244107	    -14.52031589	     16.35428093	      0.28543605	     33.28826788	     18.77382787	      0.00000000	     -4.57455531	     -1.96060823	     10.30859725	      1.66779558	      0.02910852	     23.39086567	    -16.67925946	      0.00000000	     -0.08256335	      0.36128293	      1.07391263	     -0.15332840	      0.48050629	      1.14103216	     -0.13564333	      0.87842331	      1.14103216	     -0.09436166	      0.87842331	      0.93967355	     -0.07666833	      0.73672815	      0.87255401	     -0.04717670	      0.55962725	      0.80543447	     -0.58974177	      4.08690473	      5.97277985	      0.00000000	      0.00000000	     25.17569422	     -7.59817618	     -4.30436347	      5.27152889	    -19.27168667	     53.70315297	     23.03226199	     55.95105774	     -6.27650736	     -5.60143596	     11.21953921	    -13.72249614	     85.49856356	     20.30279445	     63.35418694	     -7.87552080	     -7.58482439
      1.61666667	      3.50556682	     -2.13928251	     88.74902141	      0.25505203	      1.01015741	      0.31587408	      1.76603848	     -0.08987332	    -14.15982313	     16.59072242	      0.28956273	     34.12833621	     18.78353955	      0.00000000	     -4.48843461	     -1.68529057	     10.33011437	      1.98174518	      0.03458798	     23.95036410	    -16.77662575	      0.00000000	     -0.09645697	      0.29294678	      1.04378254	     -0.17913023	      0.38961921	      1.10901894	     -0.15846915	      0.71227079	      1.10901894	     -0.11024067	      0.71227079	      0.91330972	     -0.08956994	      0.59737706	      0.84807331	     -0.05511551	      0.45377455	      0.78283690	     -0.68898246	      3.31387251	      5.80520533	      0.00000000	      0.00000000	     25.66384164	     -7.57963956	     -6.18131638	      4.76081395	    -18.86044103	     54.68149640	     20.68069820	     55.87374491	     -6.39485448	     -4.31122672	      9.79479426	    -14.46834407	     84.14756280	     18.62641956	     60.32463653	     -7.17336986	     -6.91301725
      1.63333333	      3.12021051	     -2.16843364	     88.91490409	      0.25632620	      1.00914167	      0.31629043	      1.92671578	     -0.41579999	    -14.05787012	     16.78776174	      0.29300172	     34.74370803	     18.80081070	      0.00000000	     -4.22685997	     -1.38017432	     10.49896942	      2.44007817	      0.04258740	     24.42956813	    -16.47512665	      0.00000000	     -0.10235352	      0.21741099	      0.97730194	     -0.19008072	      0.28915661	      1.03838332	     -0.16815660	      0.52861307	      1.03838332	     -0.11697984	      0.52861307	      0.85513920	     -0.09504548	      0.44334448	      0.79405783	     -0.05848480	      0.33676962	      0.73297646	     -0.73110095	      2.45939655	      5.43546022	      0.00000000	      0.00000000	     25.85424054	     -7.48045267	     -7.49789070	      9.80550411	    -15.73328071	    115.61492184	      9.53777905	      4.17800273	     -1.78076318	    -10.83704115	     12.25945526	    -11.78526442	    135.37872160	     11.40884642	      7.17774680	     -2.21256998	    -12.61608067
      1.65000000	      2.94878257	     -2.26879001	     89.00871645	      0.25720086	      1.00719457	      0.31620102	      2.13833203	     -0.55136286	    -13.98401827	     17.02372235	      0.29712001	     35.53190717	     18.79998545	      0.00000000	     -3.99402430	     -1.25329886	     10.79444568	      2.75219172	      0.04803481	     25.08865086	    -16.50686291	      0.00000000	     -0.10555589	      0.17756817	      1.01912454	     -0.19602784	      0.23616567	      1.08281983	     -0.17341777	      0.43173925	      1.08281983	     -0.12063983	      0.43173925	      0.89173397	     -0.09801920	      0.36209701	      0.82803869	     -0.06031463	      0.27505309	      0.76434341	     -0.75397516	      2.00868665	      5.66806496	      0.00000000	      0.00000000	     26.29968091	     -7.79050634	     -9.11611441	      8.92435574	    -15.92009792	    117.11683594	      8.78606020	      5.27225468	     -3.23757384	     -7.95181553	     11.50320572	    -12.81636027	    134.33524829	     11.72108965	      5.90755494	     -2.18180729	    -10.14878716
      1.66666667	      2.64364807	     -2.42337782	     89.21506500	      0.25775997	      1.00548043	      0.31633180	      2.47627522	     -0.87586135	    -14.14308694	     17.43053019	      0.30422014	     36.38813627	     18.85623613	      0.00000000	     -3.55445076	     -0.97527218	     10.76576647	      3.28405029	      0.05731749	     26.00969953	    -15.84971257	      0.00000000	     -0.10947763	      0.12655136	      1.02943759	     -0.20331090	      0.16831331	      1.09377744	     -0.17986079	      0.30769699	      1.09377744	     -0.12512198	      0.30769699	      0.90075789	     -0.10166092	      0.25806354	      0.83641804	     -0.06255552	      0.19602806	      0.77207819	     -0.78198773	      1.43157434	      5.72542302	      0.00000000	      0.00000000	     26.59490114	     -8.19197798	    -10.52868867	      8.61396239	    -15.87943104	    125.26960523	      7.79516777	      4.48667445	     -4.22313346	     -5.62583841	     10.65872075	    -14.10835372	    129.52529574	     12.64094229	      6.48664859	     -2.39829792	     -7.80609030
